<svg xmlns="http://www.w3.org/2000/svg" viewBox="0 0 64 64">
  <defs>
    <linearGradient id="bg" x1="0%" y1="0%" x2="100%" y2="100%">
      <stop offset="0%" stop-color="#4f46e5"/>
      <stop offset="55%" stop-color="#7c3aed"/>
      <stop offset="100%" stop-color="#ec4899"/>
    </linearGradient>
    <linearGradient id="mic" x1="0%" y1="0%" x2="0%" y2="100%">
      <stop offset="0%" stop-color="#ffffff"/>
      <stop offset="100%" stop-color="#e0e7ff"/>
    </linearGradient>
  </defs>
  <rect width="64" height="64" rx="14" fill="url(#bg)"/>
  <rect x="26" y="14" width="12" height="22" rx="6" fill="url(#mic)"/>
  <path d="M19 32 Q19 42 32 42 Q45 42 45 32" stroke="white" stroke-width="2.5" fill="none" stroke-linecap="round"/>
  <line x1="32" y1="42" x2="32" y2="49" stroke="white" stroke-width="2.5" stroke-linecap="round"/>
  <line x1="26" y1="49" x2="38" y2="49" stroke="white" stroke-width="2.5" stroke-linecap="round"/>
  <path d="M14 22 Q10 26 14 30" stroke="white" stroke-width="2" fill="none" stroke-linecap="round" opacity="0.9"/>
  <path d="M9 18 Q3 26 9 34" stroke="white" stroke-width="2" fill="none" stroke-linecap="round" opacity="0.55"/>
  <path d="M50 22 Q54 26 50 30" stroke="white" stroke-width="2" fill="none" stroke-linecap="round" opacity="0.9"/>
  <path d="M55 18 Q61 26 55 34" stroke="white" stroke-width="2" fill="none" stroke-linecap="round" opacity="0.55"/>
  <circle cx="50" cy="13" r="2.2" fill="#fde047"/>
  <circle cx="56" cy="18" r="1.4" fill="#fde047" opacity="0.8"/>
</svg>
